Coordinates
version=1
nRows=11
nColumns=36
inDegrees=yes

Units are S.I. units (second, meters, Newtons, ...)
If the header above contains a line with 'inDegrees', this indicates whether rotational values are in degrees (yes) or radians (no).

endheader
time	pelvis_tilt	pelvis_list	pelvis_rotation	pelvis_tx	pelvis_ty	pelvis_tz	hip_flexion_r	hip_adduction_r	hip_rotation_r	knee_angle_r	knee_angle_r_beta	ankle_angle_r	subtalar_angle_r	mtp_angle_r	hip_flexion_l	hip_adduction_l	hip_rotation_l	knee_angle_l	knee_angle_l_beta	ankle_angle_l	subtalar_angle_l	mtp_angle_l	lumbar_extension	lumbar_bending	lumbar_rotation	arm_flex_r	arm_add_r	arm_rot_r	elbow_flex_r	pro_sup_r	arm_flex_l	arm_add_l	arm_rot_l	elbow_flex_l	pro_sup_l
      6.73333330	      1.93642706	     -3.18825045	      0.67194967	      0.22021012	      0.99324433	     -0.05311274	     -1.11435794	      3.17712571	     -8.99080340	      0.74162745	      0.01294384	      7.75652340	      2.34304846	     -7.49999987	      1.40862413	     -4.89175778	    -13.47010782	      3.25604601	      0.05682872	      8.34840300	     10.59621488	     -7.49999987	     -6.25054993	      4.22451238	      8.78096231	     22.23952446	     -8.53358035	    123.96865490	      3.68202828	     15.00811879	     10.61371160	     -7.51906299	     53.81627956	      8.18874092	     51.24215908
      6.75000000	      1.94020026	     -3.22946949	      0.66434720	      0.21926522	      0.99621947	     -0.05225673	     -1.13270608	      3.23472495	     -8.87331988	      0.70405706	      0.01228811	      7.52842515	      2.29850786	     -7.49999987	      1.34632108	     -4.95512914	    -13.51201346	      3.18236448	      0.05554274	      8.25530675	     10.77392506	     -7.49999987	     -6.25891720	      4.25108108	      8.73701533	     22.38079301	     -8.50071657	    126.84629293	      4.59074009	     14.73997112	     10.64891253	     -7.55572053	     55.17582418	      8.25607780	     51.05857179
      6.76666670	      1.94134124	     -3.26626708	      0.65712455	      0.22331916	      0.99326873	     -0.05093299	     -1.13547455	      3.29746391	     -8.81552974	      0.68948465	      0.01203378	      7.52422098	      2.32840411	     -7.49999987	      1.28891467	     -5.01942027	    -13.48808683	      3.18150666	      0.05552777	      8.26597417	     10.77538253	     -7.49999987	     -6.35267346	      4.25542525	      8.73047588	     22.12272510	     -8.30907118	    126.88016953	      4.73984710	     14.75895376	     10.59545328	     -7.55009307	     55.19445130	      8.26002976	     51.06653428
      6.78333330	      2.06209260	     -3.31878986	      0.53543494	      0.22166385	      1.00116544	     -0.04962717	     -1.33052103	      3.39483318	     -8.67755800	      0.62456610	      0.01090073	      7.29895554	      2.42655434	     -7.49999987	      0.96847445	     -5.12241505	    -13.61039823	      2.97986304	      0.05200842	      8.04315239	     10.94104399	     -7.49999987	     -6.36526145	      4.27361623	      8.78695450	     22.40588755	     -8.31570250	    129.62691715	      6.06792694	     16.53024705	     10.56793825	     -7.61883784	     57.20877046	      8.22188064	     52.71371891
      6.80000000	      2.14392384	     -3.36886965	      0.44991168	      0.22215289	      0.99708952	     -0.04848169	     -1.41015210	      3.50667505	     -8.48517710	      0.58690048	      0.01024335	      7.29541326	      2.30743851	     -7.49999987	      0.80334674	     -5.22772041	    -13.66787480	      2.88819846	      0.05040857	      8.05685754	     11.09538954	     -7.49999987	     -6.46670764	      4.27551152	      8.74561772	     22.57396860	     -8.16085460	    131.58747911	      6.97362532	     15.93870271	     10.57250379	     -7.75194672	     58.40051588	      8.38148044	     53.03731063
      6.81666670	      2.16892831	     -3.43928406	      0.40524101	      0.22094629	      0.99715773	     -0.04828050	     -1.43777847	      3.62724451	     -8.48083243	      0.57762952	      0.01008154	      7.38321383	      2.59995897	     -7.49999987	      0.72537643	     -5.33990695	    -13.57889860	      2.83253128	      0.04943700	      8.07462283	     11.03103918	     -7.49999987	     -6.49613443	      4.33674671	      8.55098070	     22.90850152	     -7.96917359	    133.94614700	      8.01869358	     14.16122689	     10.52833328	     -7.83182530	     59.67696056	      8.40232351	     52.41961831
      6.83333330	      2.24474296	     -3.45087275	      0.33481754	      0.22166550	      1.00060929	     -0.04864873	     -1.56298680	      3.67207312	     -8.50216089	      0.58227335	      0.01016259	      7.36582910	      2.68498637	     -7.49999987	      0.54682917	     -5.39942230	    -13.61268014	      2.71163711	      0.04732700	      7.92221977	     11.16640798	     -7.49999987	     -6.59032752	      4.32762850	      8.44269819	     23.07262718	     -7.77989653	    135.20701069	      8.78362348	     13.98070651	     10.45297250	     -7.92078405	     60.46294792	      8.51205176	     52.54218966
      6.85000000	      2.32879598	     -3.50150442	      0.27505452	      0.22178507	      1.00067833	     -0.04863636	     -1.68211370	      3.74714592	     -8.44928321	      0.58751850	      0.01025413	      7.25675057	      2.58984099	     -7.49999987	      0.37006524	     -5.48456955	    -13.63627030	      2.69218296	      0.04698746	      7.82124903	     11.17413951	     -7.49999987	     -6.68210935	      4.37744758	      8.39063236	     23.20670055	     -7.62711981	    135.73045385	      9.35461603	     14.49026796	     10.47859059	     -7.94892499	     61.67545731	      8.51985526	     53.14057873
      6.86666670	      2.41648027	     -3.52004752	      0.22548825	      0.22245020	      0.99972316	     -0.04938337	     -1.80740388	      3.77161967	     -8.53546552	      0.59353389	      0.01035912	      7.18120737	      2.66107374	     -7.49999987	      0.20183419	     -5.52318298	    -13.73832070	      2.68827765	      0.04691930	      7.73924686	     11.33827293	     -7.49999987	     -6.75618596	      4.40527094	      8.32568771	     23.31270218	     -7.49422732	    136.34815257	     10.00753300	     14.57167525	     10.46940758	     -7.99923206	     62.91380441	      8.66811850	     53.49708841
      6.88333330	      2.50608055	     -3.55324169	      0.20115031	      0.22237614	      0.99835032	     -0.04913871	     -1.92614097	      3.81611586	     -8.59152558	      0.59720460	      0.01042319	      7.13538996	      2.63363265	     -7.49999987	      0.06819975	     -5.57632333	    -13.71111566	      2.67831198	      0.04674536	      7.73323292	     11.33378660	     -7.49999987	     -6.84125685	      4.47247024	      8.13355849	     23.55907511	     -7.34586220	    137.44210672	     10.62476976	     14.42978377	     10.37888928	     -8.06769359	     63.58933247	      8.89202387	     53.06981575
      6.90000000	      2.60369153	     -3.56591793	      0.16832253	      0.22251586	      0.99898303	     -0.04908057	     -2.03890788	      3.83194713	     -8.57470709	      0.60376634	      0.01053771	      7.06874708	      2.51926725	     -7.49999987	     -0.06009721	     -5.59305067	    -13.72073494	      2.66887025	      0.04658057	      7.72546400	     11.33088138	     -7.49999987	     -6.94272042	      4.50023314	      8.21972794	     23.53013613	     -7.30673027	    137.29483045	     10.88487346	     15.31767501	     10.50176152	     -8.09954198	     65.00448596	      9.02852099	     54.35372303
